<svg version="1.2" xmlns="http://www.w3.org/2000/svg" viewBox="0 0 2400 366" width="700" height="107"><path d="m303.1 359c0.5 0.9-0.9 7.6-6 6.8l-117.8-10.6c-2.6 11.5-13.1 10.9-27.8 10.9-14.7 0-25.2 0.6-27.7-10.9l-117.8 10.6c-3.8 0.5-6.7-3.4-5-6.8l8.4-16.6q-1.6 0-3.3 0c-3.7 0-5.9-4-4.2-7.1l8.2-14.3q-2 0-4 0c-3.5 0-5.9-3.8-4.3-6.9l25.7-67.6c0.8-1.6 2.5-2.7 4.3-2.7 32.7 0 63.5 6.1 86.7 17.2 5.3 2.5 10.1 6.1 14.3 10.2l-1-148.1h-100.7v-40.3h100.4l-0.5-83h40.2l0.2 83h99.7v40.3h-99.7l0.3 146.5c3.8-3.4 8-6.4 12.6-8.6 23.3-11.1 54.1-17.2 86.8-17.2 1.8 0 3.4 1.1 4.2 2.7l25.6 67.6c1.5 3.1-0.8 6.9-4.3 6.9q-1.3 0-2.6 0l8.2 14.3c1.8 3.1-0.5 7.1-4.1 7.1q-1.7 0-3.4 0zm-156.4-12.3v-35.4c-1.2-12.5-12.6-32.3-32.3-41.7-21.3-10.2-49.5-15.9-79.7-16.2l-21 58.2q1.9 0 3.8 0 0.9-0.1 1.8 0.1c58.7 1.2 106.4 19.6 127.4 35zm142.3-35.1l-20.9-58.2c-30.2 0.3-58.4 6-79.7 16.2-19.7 9.4-31 29.2-32.2 41.7l0.1 35.2c19.3-17.3 65.5-33.7 128.7-34.9q0.7-0.1 1.4 0 1.3 0 2.6 0z"></path><path d="m414.6 265q1.3-1.1 2.6-1.1 1.2-0.1 2 0.6 0.8 0.8 0.8 2 0 1.1-1.2 2.3-2.1 2.1-3.2 3.9-0.9 1.7-1.3 3.9l-0.7-2.8q3 0 4.7 1.7 1.9 1.7 1.9 4.5 0 2.7-1.7 4.5-1.6 1.7-4.5 1.7-2.9 0-4.5-1.9-1.5-1.9-1.5-4.9 0-2.8 0.7-5.2 0.7-2.5 2.2-4.8 1.5-2.3 3.7-4.4zm16.4 0q1.3-1.1 2.6-1.1 1.2-0.1 2 0.6 0.8 0.8 0.8 2 0 1.1-1.2 2.3-2.1 2.1-3.1 3.9-1 1.7-1.4 3.9l-0.7-2.8q3 0 4.7 1.7 1.9 1.7 1.9 4.5 0 2.7-1.7 4.5-1.6 1.7-4.5 1.7-2.9 0-4.5-1.9-1.5-1.9-1.5-4.9 0-2.8 0.7-5.2 0.7-2.5 2.2-4.8 1.5-2.3 3.7-4.4zm30.9 58.7q-2.2 0-3.5-1.3-1.2-1.3-1.7-3.8l-9.6-49.1q-0.6-2.9 0.7-4.7 1.5-1.8 4.3-1.8 2.1 0 3.3 1.3 1.4 1.2 1.8 3.7l8 44.3h-3.4l23.1-45.2q1.1-2.1 2.4-3.1 1.4-1 3.5-1 1.9 0 3 1.3 1.2 1.2 1.7 3.9l8 44.1h-3l22.8-45.3q1-2 2.3-3 1.2-1 3.3-1 3.2 0 4.3 2 1 2.1-0.5 5l-25.4 49.6q-1.1 2.1-2.6 3.1-1.4 1-3.7 1-2.2 0-3.4-1.3-1.3-1.3-1.8-3.8l-7.9-41.1h1.9l-21.6 42.1q-1.1 2.1-2.5 3.1-1.5 1-3.8 1zm87.7 0.1q-6.3 0-10.9-2.2-4.5-2.4-7.1-6.6-2.5-4.2-2.5-9.8 0-6.9 2.9-12.3 2.9-5.5 8.1-8.7 5.1-3.2 11.7-3.2 5.2 0 8.6 1.8 3.5 1.8 5.5 4.8 2 2.9 2.7 6.7 0.6 3.8 0.2 7.8-0.1 1.7-0.9 2.2-0.8 0.5-2.1 0.5h-28.3l0.9-6h23.5l-1.4 1.2q0.5-3.3-0.3-5.9-0.7-2.7-2.8-4.3-2-1.6-5.7-1.6-3.7 0-6.2 1.7-2.5 1.6-3.9 4.3-1.5 2.6-2 5.7l-0.4 2.6q-1 6.1 2 9.7 3.1 3.6 9.3 3.6 2.5 0 5.2-0.5 2.7-0.5 4.9-1.8 1.6-0.9 2.8-0.8 1.2 0.1 1.9 1 0.7 0.7 0.9 1.9 0.2 1.1-0.4 2.4-0.5 1.1-1.9 2.1-2.9 1.9-6.9 2.8-4.1 0.9-7.4 0.9zm83.8-0.8h-29.2q-2.9 0-4.2-1.5-1.3-1.6-0.9-4.5l7.8-49q0.5-2.5 1.9-3.7 1.4-1.3 4-1.3 2.6 0 3.9 1.6 1.3 1.5 0.8 4.3l-7 44.9h23.5q2.3 0 3.6 1 1.2 1 1.2 2.7 0 2.6-1.5 4.1-1.4 1.4-3.9 1.4zm31.1 0.8q-6.1 0-10.5-2.2-4.3-2.3-6.6-6.5-2.3-4.2-2.3-9.8 0-5.6 1.8-10.1 1.7-4.4 4.9-7.6 3.2-3.2 7.3-4.9 4.1-1.7 8.9-1.7 6.1 0 10.3 2.3 4.4 2.3 6.7 6.5 2.3 4.1 2.3 9.8 0 5.6-1.7 10-1.8 4.5-5 7.7-3.1 3.2-7.2 4.9-4.1 1.6-8.9 1.6zm0.2-8q3.9 0 6.5-2.1 2.7-2.2 4.1-6 1.4-3.8 1.4-8.4 0-5-2.4-7.6-2.3-2.7-6.6-2.7-3.7 0-6.4 2.2-2.7 2.2-4.2 6-1.4 3.7-1.4 8.4 0 5 2.4 7.6 2.4 2.6 6.6 2.6zm43.6 7.9q-2.6 0-4.1-1.3-1.4-1.3-2.1-3.7l-8.3-30.3q-0.6-2.1-0.2-3.7 0.4-1.7 1.7-2.6 1.3-0.9 3.2-0.9 2.2 0 3.4 1.1 1.2 1 1.8 3.7l6.7 27.7h-2.6l16.5-28.9q1.2-2 2.5-2.8 1.2-0.8 3.3-0.8 2 0 3.1 0.9 1.1 0.9 1.2 2.4 0.1 1.4-0.9 3.2l-19.1 32q-1.3 2.1-2.8 3-1.4 1-3.3 1zm48.3 0.1q-6.3 0-10.9-2.2-4.5-2.4-7.1-6.6-2.5-4.2-2.5-9.8 0-6.9 2.9-12.3 2.9-5.5 8.1-8.7 5.1-3.2 11.7-3.2 5.2 0 8.6 1.8 3.5 1.8 5.5 4.8 2 2.9 2.7 6.7 0.6 3.8 0.2 7.8-0.1 1.7-0.9 2.2-0.8 0.5-2.1 0.5h-28.3l0.9-6h23.5l-1.4 1.2q0.5-3.3-0.3-5.9-0.7-2.7-2.8-4.3-2-1.6-5.7-1.6-3.7 0-6.2 1.7-2.5 1.6-3.9 4.3-1.5 2.6-2 5.7l-0.4 2.6q-1 6.1 2 9.7 3.1 3.6 9.3 3.6 2.5 0 5.2-0.5 2.7-0.5 4.9-1.8 1.6-0.9 2.8-0.8 1.3 0.1 1.9 1 0.7 0.7 0.9 1.9 0.2 1.1-0.4 2.4-0.5 1.1-1.9 2.1-2.9 1.9-6.9 2.8-4.1 0.9-7.4 0.9zm53.1-0.1q-2.6 0-3.8-1.7-1.2-1.7-0.8-4.6l7.7-48.4q0.4-2.7 2-4 1.6-1.3 4.2-1.3h17.7q9.8 0 14.9 4.3 5.2 4.2 5.2 12.2 0 9.7-6 15.1-6 5.5-17.3 5.5h-15l-2.8 17.5q-0.4 2.7-1.9 4-1.4 1.4-4.1 1.4zm13.3-51.5l-3.2 20.1h14.2q6 0 9.2-2.9 3.1-2.9 3.1-8.4 0-4.5-2.7-6.6-2.7-2.2-8.2-2.2zm54.5 51.6q-6.2 0-10.8-2.2-4.6-2.4-7.1-6.6-2.5-4.2-2.5-9.8 0-6.9 2.8-12.3 3-5.5 8.1-8.7 5.1-3.2 11.8-3.2 5.1 0 8.6 1.8 3.4 1.8 5.4 4.8 2.1 2.9 2.7 6.7 0.7 3.8 0.3 7.8-0.2 1.7-0.9 2.2-0.8 0.5-2.1 0.5h-28.3l0.8-6h23.6l-1.4 1.2q0.5-3.3-0.3-5.9-0.7-2.7-2.9-4.3-2-1.6-5.6-1.6-3.7 0-6.2 1.7-2.5 1.6-4 4.3-1.4 2.6-1.9 5.7l-0.4 2.6q-1 6.1 2 9.7 3 3.6 9.3 3.6 2.5 0 5.2-0.5 2.7-0.5 4.8-1.8 1.6-0.9 2.8-0.8 1.3 0.1 2 1 0.7 0.7 0.9 1.9 0.2 1.1-0.4 2.4-0.5 1.1-1.9 2.1-2.9 1.9-7 2.8-4 0.9-7.4 0.9zm44.9 0q-6 0-10.4-2.2-4.3-2.3-6.6-6.5-2.3-4.2-2.3-9.8 0-5.6 1.7-10.1 1.8-4.4 4.9-7.6 3.2-3.2 7.3-4.9 4.2-1.7 9-1.7 6 0 10.3 2.3 4.4 2.3 6.7 6.5 2.3 4.1 2.3 9.8 0 5.6-1.8 10-1.7 4.5-4.9 7.7-3.1 3.2-7.3 4.9-4.1 1.6-8.9 1.6zm0.3-8q3.9 0 6.5-2.1 2.7-2.2 4.1-6 1.4-3.8 1.4-8.4 0-5-2.4-7.6-2.4-2.7-6.6-2.7-3.8 0-6.5 2.2-2.7 2.2-4.1 6-1.4 3.7-1.4 8.4 0 5 2.3 7.6 2.5 2.6 6.7 2.6zm30.3 23q-2.4 0-3.6-1.6-1.2-1.6-0.8-4.4l7.4-46.2q0.4-2.7 1.9-4.1 1.5-1.3 4.1-1.3 2.5 0 3.5 1.6 1.1 1.6 0.6 4.5l-0.7 4.7-0.2-2.5q2.4-4.1 6.1-6.3 3.8-2.2 8.6-2.2 4.7 0 8.1 2.2 3.5 2.1 5.5 6.2 1.9 3.9 1.9 9.4 0 7-2.5 12.7-2.4 5.6-7.1 9-4.6 3.3-11.1 3.3-4.7 0-8.4-2.2-3.6-2.3-5-6.8h0.7l-3 19.1q-0.4 2.6-1.9 3.7-1.4 1.2-4.1 1.2zm19.8-23q3.9 0 6.5-2.1 2.7-2.2 4.1-6 1.4-3.8 1.4-8.4 0-5-2.4-7.6-2.4-2.7-6.6-2.7-3.8 0-6.5 2.2-2.7 2.2-4.1 6-1.4 3.7-1.4 8.4 0 5 2.3 7.6 2.5 2.6 6.7 2.6zm42.7 8q-6.9 0-10.1-3.9-3.1-4.1-1.9-11.7l6.4-40q0.4-2.6 1.9-3.8 1.6-1.4 4.2-1.4 2.4 0 3.5 1.6 1.2 1.6 0.8 4.6l-6.3 38.9q-0.6 3.7 0.6 5.5 1.3 1.7 4.1 1.7 0.9 0 1.5-0.1 0.6-0.2 1.1-0.2 0.8 0 1.3 0.6 0.5 0.6 0.5 2.3 0 2.4-1 3.8-1 1.2-2.4 1.6-0.8 0.3-2 0.5-1.1 0-2.2 0zm33 0q-6.2 0-10.8-2.2-4.6-2.4-7.1-6.6-2.5-4.2-2.5-9.8 0-6.9 2.8-12.3 3-5.5 8.1-8.7 5.1-3.2 11.8-3.2 5.1 0 8.6 1.8 3.4 1.8 5.4 4.8 2.1 2.9 2.7 6.7 0.7 3.8 0.3 7.8-0.2 1.7-0.9 2.2-0.8 0.5-2.1 0.5h-28.3l0.8-6h23.6l-1.4 1.2q0.5-3.3-0.3-5.9-0.7-2.7-2.9-4.3-2-1.6-5.6-1.6-3.7 0-6.2 1.7-2.5 1.6-4 4.3-1.4 2.6-1.9 5.7l-0.4 2.6q-1 6.1 2 9.7 3 3.6 9.3 3.6 2.5 0 5.2-0.5 2.7-0.5 4.8-1.8 1.6-0.9 2.8-0.8 1.3 0.1 2 1 0.7 0.7 0.9 1.9 0.2 1.1-0.4 2.4-0.5 1.1-1.9 2.1-2.9 1.9-7 2.8-4 0.9-7.4 0.9zm32.6-18.3q-1.6 0-2.4-0.8-0.8-0.9-0.7-3l2.6-32.5q0.3-3.1 2-4.7 1.7-1.5 4.6-1.5 3.1 0 4.5 2 1.6 2 0.7 5.4l-7.6 31.9q-0.3 1.5-1.2 2.4-0.9 0.8-2.5 0.8zm-1.9 17.9q-2.8 0-4.6-1.7-1.7-1.8-1.7-4.6 0-2.7 1.7-4.4 1.8-1.7 4.6-1.7 3 0 4.6 1.7 1.6 1.7 1.6 4.4 0 2.8-1.6 4.6-1.6 1.7-4.6 1.7zm26.7-38.9q-1.2 1.2-2.5 1.2-1.2 0-2-0.7-0.8-0.8-0.8-2 0-1.1 1.3-2.3 2.2-2.1 3.1-3.9 1-1.7 1.4-3.9l0.6 2.8q-3 0-4.8-1.7-1.8-1.6-1.8-4.5 0-2.8 1.7-4.5 1.7-1.7 4.5-1.7 3 0 4.5 1.9 1.6 1.9 1.6 4.9 0 2.8-0.8 5.2-0.7 2.4-2.2 4.7-1.5 2.3-3.8 4.5zm16.4 0q-1.2 1.2-2.5 1.2-1.2 0-2-0.7-0.8-0.8-0.8-2 0-1.1 1.3-2.3 2.2-2.1 3.1-3.9 1-1.7 1.4-3.9l0.6 2.8q-3 0-4.8-1.7-1.8-1.6-1.8-4.5 0-2.8 1.7-4.5 1.7-1.7 4.5-1.7 3 0 4.5 1.9 1.6 1.9 1.6 4.9 0 2.8-0.8 5.2-0.7 2.4-2.2 4.7-1.5 2.3-3.8 4.5zm56 19.5h-18.5q-1.5 0-2.5-1-1-1-1-2.5 0-1.5 1-2.4 1-1 2.5-1h18.5q1.4 0 2.5 1 1 0.9 1 2.4 0 1.5-1 2.5-1.1 1-2.5 1zm74 19h-30.7q-4.7 0-4.7-4.7v-49.9q0-4.7 4.7-4.7h30.7q3.6 0 3.6 3.4 0 3.7-3.6 3.7h-27v18.6h25.1q3.7 0 3.7 3.5 0 3.5-3.7 3.5h-25.1v19.5h27q3.6 0 3.6 3.6 0 3.5-3.6 3.5zm27 0.8q-3.7 0-7.6-0.9-4-0.8-7.2-2.8-1.4-0.9-1.7-2.1-0.4-1.3 0.1-2.4 0.5-1.1 1.6-1.5 1.2-0.5 2.6 0.2 3.3 1.8 6.3 2.6 3.1 0.7 6 0.7 4.5 0 6.7-1.6 2.3-1.6 2.3-4.3 0-2.2-1.5-3.3-1.5-1.3-4.5-2l-8-1.6q-10.6-2.2-10.6-10.9 0-5.8 4.6-9.3 4.6-3.4 12.1-3.4 7.6 0 13 3.7 1.4 0.8 1.6 2.1 0.3 1.2-0.3 2.3-0.6 1-1.8 1.4-1.1 0.4-2.6-0.3-2.5-1.6-5-2.2-2.5-0.8-4.9-0.8-4.4 0-6.6 1.7-2.3 1.6-2.3 4.4 0 4.2 5.5 5.4l8 1.6q5.5 1 8.3 3.7 2.8 2.6 2.8 7 0 5.9-4.6 9.3-4.6 3.3-12.3 3.3zm43.1 0q-7.7 0-11.5-4-3.8-4-3.8-11.4v-19.9h-5q-3.6 0-3.6-3.3 0-3.3 3.6-3.3h5v-8.6q0-4.3 4.3-4.3 4.2 0 4.2 4.3v8.6h9.9q3.5 0 3.5 3.3 0 3.3-3.5 3.3h-9.9v19.2q0 4.4 1.9 6.7 1.9 2.3 6.2 2.3 1.5 0 2.6-0.3 1.1-0.3 1.9-0.4 1 0 1.6 0.7 0.5 0.6 0.5 2.3 0 1.4-0.5 2.5-0.4 1-1.6 1.3-1 0.5-2.7 0.7-1.7 0.3-3.1 0.3zm18.7-0.5q-2.6 0-4.1-1.5-1.4-1.5-1.4-3.8 0-2.4 1.4-3.8 1.5-1.5 4.1-1.5 2.4 0 3.8 1.5 1.5 1.4 1.5 3.8 0 2.3-1.5 3.8-1.4 1.5-3.8 1.5zm73.3-0.3h-28.4q-3.8 0-3.8-3.7 0-3.6 3.8-3.6h10.3v-42l-7.9 5.1q-1.6 1-3.1 0.5-1.3-0.5-2.1-1.7-0.6-1.3-0.4-2.7 0.3-1.5 1.9-2.5l11.7-7.4q1.4-0.8 2.6-1.3 1.4-0.6 2.6-0.6 1.4 0 2.3 0.8 1 0.9 1 2.7v49.1h9.5q3.8 0 3.8 3.6 0 3.7-3.8 3.7zm34.8 0.8q-10.2 0-15.9-4.4-5.6-4.4-5.6-12.2 0-5.5 2.8-9.3 3-3.8 7.7-5.3-4.2-1.7-6.7-5.4-2.4-3.7-2.4-8.4 0-7.5 5.5-11.7 5.4-4.2 14.6-4.2 9.3 0 14.7 4.2 5.5 4.2 5.5 11.7 0 4.7-2.5 8.4-2.5 3.7-6.7 5.4 4.8 1.5 7.7 5.3 2.8 3.8 2.8 9.3 0 7.8-5.7 12.2-5.6 4.4-15.8 4.4zm0-34.3q5.6 0 8.8-2.6 3.2-2.7 3.2-7.3 0-4.5-3.2-7.2-3.2-2.6-8.8-2.6-5.6 0-8.7 2.6-3.2 2.7-3.2 7.2 0 4.6 3.2 7.3 3.1 2.6 8.7 2.6zm0 27.4q13.4 0 13.4-10.3 0-10.2-13.4-10.2-6.6 0-10 2.5-3.4 2.6-3.4 7.7 0 10.3 13.4 10.3zm59.8 6.7q-2.1 0-3.2-1.1-1.2-1.2-1.2-3.2v-8.3h-22.6q-2.1 0-3.3-1-1.3-0.9-1.3-2.7 0-1.2 0.6-2.5 0.6-1.2 1.9-3.3l24.5-35.5q0.9-1.5 2.1-2.1 1.2-0.8 2.7-0.8 1.8 0 2.9 1.1 1.2 1 1.2 3.2v36.3h5.3q3.9 0 3.9 3.6 0 3.7-3.9 3.7h-5.3v8.3q0 4.3-4.3 4.3zm-22.5-19.9h18.1v-26.5zm63.7 20.1q-10.4 0-15.8-7.8-5.4-7.9-5.4-22.6 0-15 5.4-22.6 5.4-7.8 15.8-7.8 10.4 0 15.8 7.8 5.4 7.6 5.4 22.5 0 14.8-5.5 22.7-5.4 7.8-15.7 7.8zm0-7.2q6.4 0 9.5-5.6 3.1-5.7 3.1-17.7 0-12-3.1-17.5-3-5.5-9.5-5.5-6.4 0-9.5 5.5-3.1 5.6-3.1 17.5 0 12 3.1 17.7 3.1 5.6 9.5 5.6z"></path><path d="m441.4 182h-28q-2.9-3.4-2.9-8.6 4.8 0 7.1-1.5 2.4-1.4 2.4-5.2v-63.1q0-3.8-2.5-5.3-2.4-1.6-7-1.6 0-4.9 3.1-8.4h21.1q5.7 0 9.6 1.6 4.1 1.6 6.5 7.4l14.2 35 5.4 16.7 5.1-16.7 16.9-44h30.7q3 3.5 3 8.4-4.5 0-6.8 1.6-2.2 1.5-2.2 5.3v63.1q0 3.8 2.1 5.2 2.1 1.5 6.9 1.5 0 5.1-3 8.6h-33.4q-1.3-1.6-2.1-3.9-0.8-2.3-0.8-4.7 4.6 0 6.8-1.5 2.5-1.4 2.5-5.2v-55.6l-22.9 57.6q-1.7 4.4-5.1 5.9-3.2 1.4-7.8 1.4l-26.6-64.9v55.6q0 3.8 2.7 5.2 2.8 1.5 7.9 1.5 0 2.4-0.8 4.7-0.8 2.3-2.1 3.9zm122.4 1.2q-15 0-24-9.5-8.9-9.6-8.9-26.6 0-11.7 4.4-20.2 4.5-8.6 12-13.1 7.6-4.6 17.3-4.6 12.1 0 19.4 7.1 7.3 7 7.3 19.8 0 5.1-1.7 9-1.6 3.7-6.9 3.7h-29q0.4 10.6 4.9 15.1 4.5 4.4 11.8 4.4 4.6 0 8.4-1.3 3.9-1.5 7.3-4.1 1.2 1.1 1.9 3.4 0.8 2.1 0.8 3.6 0 2.2-3.1 5.4-3 3.1-8.6 5.5-5.5 2.4-13.3 2.4zm-10.1-44.6h13.6q2.3 0 2.8-1.7 0.7-1.8 0.7-4.3 0-8.6-2.2-11.3-2-2.8-4.8-2.8-2.3 0-4.6 1.7-2.2 1.8-3.7 6.2-1.5 4.3-1.8 12.2zm78.4 45.4q-9.8 0-17.4-4.4-7.3-4.4-11.6-12.6-4.2-8.4-4.2-19.9 0-12 4.6-20.4 4.5-8.6 12.5-13.1 7.9-4.5 17.8-4.5 10.4 0 15.7 4.9 5.4 4.9 5.4 12 0 6.4-3.2 9.9-3.2 3.5-8.3 3.5-4.2 0-7-3.1-2.9-3.1-2.9-7.5 0-3.2 1.1-5.2 1.2-2 3-3.4-1.4-0.8-2.3-0.9-0.8-0.3-1.6-0.3-2.6 0-5.3 2-2.6 2-4.5 7.1-1.8 5.1-1.8 14.3 0 14.8 4.3 20.8 4.3 5.9 12.1 5.9 3.6 0 7.3-1.1 3.7-1 6.3-3.1 1.1 1.4 1.7 3.4 0.8 1.9 0.8 3.4 0 2.8-3.1 5.7-2.9 2.9-8 4.7-5.1 1.9-11.4 1.9zm87.4-1.2q-6.5 0-10-2-3.5-2-3.5-6.5v-43.2q0-4.3-2.5-6.6-2.4-2.4-6.3-2.4-2.5 0-5.5 1.7-2.8 1.7-4.3 4.5v39.2q0 3.9 1.6 5.6 1.8 1.6 5.8 1.6 0 4.2-3.1 7.3h-29.7q-3-3.1-3-7.3 4 0 5.6-1.6 1.7-1.7 1.7-5.6v-72.8q0-3.1-1.7-4.8-1.7-1.8-7.3-1.8v-5.5q3.4-1.7 7.8-3.2 4.6-1.5 9-2.3 4.6-0.9 7.6-0.9 3 0 4.4 1.5 1.3 1.3 1.3 4.7v26.4l-0.2 10.8q3.5-4.5 9-7.6 5.5-3.1 12.5-3.1 19 0 19 19.9v37.6q0 6.9 6.5 8.1l0.1 3.9q-4.8 4.4-14.8 4.4zm43 0.1q-10.1 0-16.4-5.5-6.1-5.6-6.1-14.3 0-8.8 5.6-14.1 5.8-5.4 17.7-5.4 3.9 0 8.2 0.8 4.3 0.7 7 2.1v-17.8q0-5.7-3-7.8-2.8-2.3-6.9-2.3-4.5 0-7.3 2.2 2.7 0.9 3.9 2.9 1.2 1.9 1.2 4.2 0 4.4-3.2 7.1-3.1 2.5-7.7 2.5-5.1 0-8.2-2.9-3-3.1-3-7.7 0-4.5 3-8.6 3.1-4.1 9.6-6.8 6.6-2.7 16.9-2.7 27 0 27 21.4v35.5q0 6.5 6.2 7.8v4.3q-1.8 2.6-5.9 3.9-4.2 1.2-8.1 1.2-9.1 0-12.9-6.3-2.7 2.4-7.1 4.5-4.4 1.8-10.5 1.8zm8.8-10.8q1.8 0 3.8-0.6 2.1-0.6 3.4-1.6v-13q-1.3-1-3.5-1.6-2-0.7-4-0.7-3.5 0-6.1 2.3-2.5 2.1-2.5 6.8 0 3.7 2.4 6.1 2.4 2.3 6.5 2.3zm75.6 9.9h-30.5q-1.5-1.5-2.4-3.2-0.8-1.8-0.8-3.9 4 0 5.7-1.8 1.8-1.7 1.8-5.6v-39.2q0-3.5-2-5.1-1.9-1.6-7-1.6v-6.1q3.1-1.7 7.8-3.2 4.8-1.5 9.2-2.3 4.6-0.9 7-0.9 2.8 0 4.6 1.7 1.9 1.8 2.1 7.5 3.4-4.1 8.5-6.7 5.2-2.5 12.1-2.5 9.4 0 14.1 4.8 4.8 4.7 4.8 16.1v36.7q0 6.6 6.5 7.8l0.1 3.9q-1.3 1.3-4.3 2.4-2.9 0.9-6.4 1.5-3.4 0.5-6.3 0.5-5.8 0-8.6-2.1-2.7-2.2-2.7-6.9v-41.9q0-5.5-2.4-7.6-2.5-2.2-6-2.2-5.5 0-9.2 4.4v41q0 3.9 1.6 5.6 1.7 1.8 5.8 1.8 0 4-3.1 7.1zm116.3 1.9q-11.4 0-21.2-5.4-9.8-5.4-15.7-16.2-5.9-11.1-5.9-27.6 0-15.8 5.2-26.4 5.4-10.6 14.8-16 9.5-5.5 22-5.5 3 0 6.7 0.8 3.8 0.8 6.6 2.1 1.3-0.6 3.6-1.2 2.3-0.6 4.6-1.2 2.4-0.5 3.8-0.5 1.7 4.3 2.5 10.2 0.8 5.8 1.1 11.5 0.2 5.7 0.2 9.7h-15.1q-1.1-8.7-4.9-14.2-3.6-5.5-9.5-5.5-7.8 0-12.9 7.4-5 7.3-5 24.1 0 13.9 3.8 22.2 3.8 8.2 9.9 11.8 6.2 3.5 13.3 3.5 6.2 0 10.5-2.3 4.3-2.4 6.1-5 1.7 1.3 2.6 3.8 1.1 2.4 1.1 4.3 0 3.1-3.3 6.9-3.3 3.6-9.6 6.1-6.2 2.6-15.3 2.6zm95.3-1.1q-6.5 0-10-2-3.5-2-3.5-6.5v-43.2q0-4.3-2.5-6.6-2.4-2.4-6.3-2.4-2.5 0-5.5 1.7-2.8 1.7-4.3 4.5v39.2q0 3.9 1.6 5.6 1.8 1.6 5.8 1.6 0 4.2-3.1 7.3h-29.7q-3-3.1-3-7.3 4 0 5.6-1.6 1.7-1.7 1.7-5.6v-72.8q0-3.1-1.7-4.8-1.7-1.8-7.3-1.8v-5.5q3.4-1.7 7.8-3.2 4.6-1.5 9-2.3 4.6-0.9 7.6-0.9 3 0 4.4 1.5 1.3 1.3 1.3 4.7v26.4l-0.2 10.8q3.5-4.5 9-7.6 5.5-3.1 12.5-3.1 19 0 19 19.9v37.6q0 6.9 6.5 8.1l0.1 3.9q-4.8 4.4-14.8 4.4zm44.5 0.1q-9.4 0-14.6-5.7-5.3-5.8-5.3-15.6v-36.9q0-2.3-1.7-3.3-1.8-0.9-4.8-0.9v-5.9q1.7-1.5 7.2-3.1 5.6-1.8 12.6-1.8 5.3 0 6.9 1.3 1.7 1.2 1.7 5.9v45.1q0 4 1.4 6.2 1.3 2.1 4.7 2.1 2.8 0 5.3-1.7 2.7-1.8 4.5-4.1v-39.8q0-2.3-2-3.3-2.1-0.9-5.5-0.9v-5.9q1.8-1.5 7.3-3.1 5.5-1.8 13.1-1.8 5.2 0 7.1 1.3 1.9 1.2 1.9 5.9v49.4q0 3.2 1.6 5.4 1.7 2.1 4.8 2.4v3.7q-2.1 2.6-6.8 3.9-4.6 1.2-8.9 1.2-4.4 0-7.8-2.2-3.2-2.5-4.3-6.9-6.6 9.1-18.4 9.1zm91.6-0.9h-35.9q-1.5-1.5-2.3-3.2-0.8-1.8-0.8-4.1 3.9 0 5.5-1.6 1.8-1.7 1.8-5.7v-38.9q0-3.4-1.9-4.9-1.9-1.6-7-1.6v-6.1q3.2-1.9 7.7-3.2 4.4-1.5 8.7-2.3 4.3-0.9 6.7-0.9 3.1 0 4.4 2.1 1.5 2.2 1.5 9.3 1.5-2.8 4.3-5.5 3-2.8 6.6-4.6 3.6-1.7 7.5-1.7 6.3 0 9 3.2 2.7 3.2 2.7 8.3 0 5.8-2.9 9.4-3 3.7-8.2 3.7-4.6 0-7.3-2.6-2.7-2.7-2.7-6 0-2.2 0.4-3.4-2.1 0.5-4.1 1.5-2 0.8-4.1 2.7v40.3q0 3 1 4.9 0.9 1.9 3.6 2.8 2.8 0.8 8.3 0.8 0 2.3-0.5 4.1-0.5 1.7-2 3.2zm52.5 2q-9.8 0-17.4-4.4-7.3-4.4-11.6-12.6-4.2-8.4-4.2-19.9 0-12 4.6-20.4 4.5-8.6 12.5-13.1 7.9-4.5 17.8-4.5 10.4 0 15.7 4.9 5.4 4.9 5.4 12 0 6.4-3.2 9.9-3.2 3.5-8.3 3.5-4.2 0-7-3.1-2.9-3.1-2.9-7.5 0-3.2 1.1-5.2 1.2-2 3-3.4-1.4-0.8-2.3-0.9-0.8-0.3-1.6-0.3-2.6 0-5.3 2-2.6 2-4.5 7.1-1.8 5.1-1.8 14.3 0 14.8 4.3 20.8 4.3 5.9 12.1 5.9 3.6 0 7.3-1.1 3.7-1 6.3-3.1 1.1 1.4 1.7 3.4 0.8 1.9 0.8 3.4 0 2.8-3.1 5.7-2.9 2.9-8 4.7-5.1 1.9-11.4 1.9zm87.4-1.2q-6.5 0-10-2-3.5-2-3.5-6.5v-43.2q0-4.3-2.5-6.6-2.4-2.4-6.3-2.4-2.5 0-5.5 1.7-2.8 1.7-4.3 4.5v39.2q0 3.9 1.6 5.6 1.8 1.6 5.8 1.6 0 4.2-3.1 7.3h-29.7q-3-3.1-3-7.3 4 0 5.6-1.6 1.7-1.7 1.7-5.6v-72.8q0-3.1-1.7-4.8-1.7-1.8-7.3-1.8v-5.5q3.4-1.7 7.8-3.2 4.6-1.5 9-2.3 4.6-0.9 7.6-0.9 3 0 4.4 1.5 1.3 1.3 1.3 4.7v26.4l-0.2 10.8q3.5-4.5 9-7.6 5.5-3.1 12.5-3.1 19 0 19 19.9v37.6q0 6.9 6.5 8.1l0.1 3.9q-4.8 4.4-14.8 4.4z"></path></svg>
