<svg version="1.2" xmlns="http://www.w3.org/2000/svg" viewBox="0 0 304 366" width="304" height="366"><path d="m303.1 359c0.5 0.9-0.9 7.6-6 6.8l-117.8-10.6c-2.6 11.5-13.1 10.9-27.8 10.9-14.7 0-25.2 0.6-27.7-10.9l-117.8 10.6c-3.8 0.5-6.7-3.4-5-6.8l8.4-16.6q-1.6 0-3.3 0c-3.7 0-5.9-4-4.2-7.1l8.2-14.3q-2 0-4 0c-3.5 0-5.9-3.8-4.3-6.9l25.7-67.6c0.8-1.6 2.5-2.7 4.3-2.7 32.7 0 63.5 6.1 86.7 17.2 5.3 2.5 10.1 6.1 14.3 10.2l-1-148.1h-100.7v-40.3h100.4l-0.5-83h40.2l0.2 83h99.7v40.3h-99.7l0.3 146.5c3.8-3.4 8-6.4 12.6-8.6 23.3-11.1 54.1-17.2 86.8-17.2 1.8 0 3.4 1.1 4.2 2.7l25.6 67.6c1.5 3.1-0.8 6.9-4.3 6.9q-1.3 0-2.6 0l8.2 14.3c1.8 3.1-0.5 7.1-4.1 7.1q-1.7 0-3.4 0zm-156.4-12.3v-35.4c-1.2-12.5-12.6-32.3-32.3-41.7-21.3-10.2-49.5-15.9-79.7-16.2l-21 58.2q1.9 0 3.8 0 0.9-0.1 1.8 0.1c58.7 1.2 106.4 19.6 127.4 35zm142.3-35.1l-20.9-58.2c-30.2 0.3-58.4 6-79.7 16.2-19.7 9.4-31 29.2-32.2 41.7l0.1 35.2c19.3-17.3 65.5-33.7 128.7-34.9q0.7-0.1 1.4 0 1.3 0 2.6 0z"></path></svg>
