<svg version="1.2" xmlns="http://www.w3.org/2000/svg" viewBox="0 0 1626 248" width="1626" height="248"><style></style><path  d="m205.3 243.2c0.4 0.7-0.6 5.2-4 4.7l-79.9-7.2c-1.7 7.7-8.8 7.4-18.7 7.4-10 0-17.1 0.3-18.8-7.4l-79.8 7.2c-2.6 0.3-4.6-2.4-3.4-4.7l5.7-11.2q-1.1 0-2.3 0c-2.5 0-4-2.7-2.8-4.8l5.6-9.7q-1.4 0-2.8 0c-2.3 0-3.9-2.5-2.9-4.6l17.5-45.9c0.5-1.1 1.6-1.8 2.8-1.8 22.2 0 43.1 4.1 58.8 11.6 3.6 1.7 6.8 4.2 9.7 6.9l-0.7-100.3h-68.3v-27.3h68.1l-0.4-56.2h27.3l0.1 56.2h67.6v27.3h-67.5l0.1 99.3c2.6-2.3 5.5-4.4 8.6-5.9 15.7-7.5 36.6-11.6 58.8-11.6 1.2 0 2.3 0.7 2.8 1.8l17.4 45.9c1 2.1-0.6 4.6-2.9 4.6q-0.9 0-1.8 0l5.5 9.7c1.2 2.1-0.3 4.8-2.8 4.8q-1.1 0-2.2 0zm-106-8.3v-24c-0.8-8.5-8.5-21.9-21.9-28.3-14.4-6.9-33.5-10.7-54-11l-14.2 39.5q1.3 0 2.6 0 0.6-0.1 1.2 0c39.8 0.9 72.1 13.3 86.3 23.8zm96.4-23.8l-14.1-39.5c-20.5 0.3-39.6 4.1-54 11-13.4 6.4-21.1 19.8-21.9 28.3l0.1 23.9c13.1-11.8 44.4-22.9 87.2-23.7q0.5-0.1 1 0 0.8 0 1.7 0z"/><path  d="m280.9 179.7q0.9-0.8 1.7-0.8 0.9 0 1.4 0.5 0.6 0.5 0.6 1.3 0 0.8-0.9 1.6-1.4 1.4-2.1 2.6-0.6 1.2-0.9 2.6l-0.5-1.8q2 0 3.2 1.1 1.3 1.1 1.3 3.1 0 1.8-1.2 3-1 1.1-3 1.1-2 0-3.1-1.2-1-1.3-1-3.3 0-1.9 0.5-3.6 0.5-1.7 1.5-3.2 1-1.5 2.5-3zm11.1 0q0.9-0.8 1.7-0.8 0.9 0 1.4 0.5 0.6 0.5 0.6 1.3 0 0.8-0.9 1.6-1.4 1.4-2.1 2.6-0.6 1.2-0.9 2.6l-0.5-1.8q2 0 3.2 1.1 1.3 1.1 1.3 3.1 0 1.8-1.1 3-1.1 1.1-3.1 1.1-2 0-3-1.2-1.1-1.3-1.1-3.3 0-1.9 0.5-3.6 0.5-1.7 1.5-3.2 1-1.5 2.5-3zm21.2 39.8q-1.5 0-2.3-0.9-0.9-0.9-1.2-2.6l-6.5-33.3q-0.4-1.9 0.5-3.1 0.9-1.2 2.8-1.2 1.4 0 2.3 0.8 0.9 0.8 1.2 2.5l5.4 30.1h-2.3l15.6-30.7q0.8-1.4 1.7-2.1 1-0.6 2.3-0.6 1.4 0 2.1 0.8 0.8 0.8 1.1 2.6l5.5 30h-2l15.4-30.8q0.7-1.3 1.5-2 0.9-0.6 2.3-0.6 2.1 0 2.9 1.3 0.7 1.4-0.3 3.4l-17.2 33.6q-0.8 1.4-1.8 2.1-1 0.7-2.5 0.7-1.5 0-2.3-0.9-0.9-0.9-1.2-2.6l-5.4-27.8h1.3l-14.6 28.5q-0.8 1.4-1.7 2.1-1 0.7-2.6 0.7zm59.8 0.1q-4.3 0-7.4-1.6-3.1-1.6-4.8-4.4-1.7-2.9-1.7-6.7 0-4.7 1.9-8.3 2-3.7 5.5-5.9 3.5-2.1 8-2.1 3.5 0 5.8 1.2 2.4 1.2 3.7 3.2 1.4 2 1.8 4.6 0.5 2.5 0.2 5.2-0.1 1.2-0.6 1.5-0.5 0.4-1.4 0.4h-19.2l0.6-4.1h15.9l-0.9 0.8q0.3-2.2-0.2-4-0.5-1.8-1.9-2.9-1.4-1.1-3.9-1.1-2.5 0-4.2 1.1-1.7 1.2-2.7 3-0.9 1.8-1.3 3.8l-0.3 1.8q-0.6 4.2 1.4 6.6 2.1 2.5 6.3 2.5 1.7 0 3.5-0.4 1.8-0.4 3.3-1.2 1.1-0.7 1.9-0.6 0.9 0.1 1.3 0.7 0.5 0.5 0.6 1.3 0.2 0.7-0.2 1.6-0.4 0.8-1.3 1.4-2 1.3-4.7 1.9-2.8 0.7-5 0.7zm56-0.6h-19.8q-1.9 0-2.8-1-0.9-1.1-0.6-3l5.3-33.3q0.3-1.7 1.2-2.5 1-0.8 2.7-0.8 1.9 0 2.7 1 0.9 1.1 0.6 2.9l-4.8 30.5h15.9q1.6 0 2.4 0.7 0.9 0.6 0.9 1.8 0 1.8-1 2.7-1 1-2.7 1zm21.2 0.6q-4.1 0-7-1.6-3-1.5-4.6-4.4-1.5-2.8-1.5-6.6 0-3.8 1.2-6.8 1.2-3 3.3-5.2 2.2-2.2 5-3.3 2.8-1.1 6-1.1 4.1 0 7 1.5 3 1.5 4.5 4.4 1.6 2.8 1.6 6.7 0 3.7-1.2 6.7-1.2 3.1-3.3 5.2-2.1 2.2-4.9 3.3-2.8 1.2-6.1 1.2zm0.2-5.4q2.6 0 4.4-1.5 1.8-1.5 2.8-4.1 0.9-2.5 0.9-5.7 0-3.3-1.6-5.1-1.6-1.8-4.5-1.8-2.5 0-4.3 1.5-1.9 1.4-2.8 4-1 2.5-1 5.7 0 3.4 1.6 5.2 1.6 1.8 4.5 1.8zm29.7 5.3q-1.8 0-2.8-0.9-1-0.9-1.4-2.5l-5.7-20.5q-0.3-1.5-0.1-2.5 0.3-1.2 1.2-1.8 0.8-0.6 2.1-0.6 1.5 0 2.3 0.7 0.9 0.7 1.3 2.5l4.5 18.8h-1.7l11.1-19.6q0.8-1.3 1.7-1.9 0.8-0.5 2.2-0.5 1.4 0 2.1 0.6 0.8 0.6 0.9 1.6 0 1-0.6 2.2l-13 21.7q-0.8 1.4-1.9 2-0.9 0.7-2.2 0.7zm32.9 0.1q-4.3 0-7.4-1.6-3.1-1.6-4.8-4.4-1.7-2.9-1.7-6.7 0-4.7 1.9-8.3 2-3.7 5.5-5.9 3.5-2.1 8-2.1 3.5 0 5.8 1.2 2.4 1.2 3.7 3.2 1.4 2 1.8 4.6 0.5 2.5 0.2 5.2-0.1 1.2-0.6 1.5-0.5 0.4-1.4 0.4h-19.2l0.6-4.1h15.9l-0.9 0.8q0.3-2.2-0.2-4-0.5-1.8-1.9-2.9-1.4-1.1-3.9-1.1-2.5 0-4.2 1.1-1.7 1.2-2.7 3-0.9 1.8-1.3 3.8l-0.3 1.8q-0.6 4.2 1.4 6.6 2.1 2.5 6.3 2.5 1.7 0 3.5-0.4 1.8-0.4 3.3-1.2 1.1-0.7 1.9-0.6 0.9 0.1 1.3 0.7 0.5 0.5 0.6 1.3 0.2 0.7-0.2 1.6-0.4 0.8-1.3 1.4-2 1.3-4.7 1.9-2.8 0.7-5 0.7zm35.9-0.1q-1.8 0-2.6-1.2-0.8-1.1-0.5-3.1l5.2-32.8q0.3-1.8 1.3-2.7 1.1-0.9 2.9-0.9h12q6.6 0 10.1 2.9 3.5 2.9 3.5 8.3 0 6.5-4.1 10.2-4 3.8-11.7 3.8h-10.1l-1.9 11.8q-0.3 1.8-1.3 2.7-1 1-2.8 1zm9-34.9l-2.1 13.6h9.5q4.1 0 6.3-1.9 2.1-2 2.1-5.7 0-3.1-1.9-4.5-1.8-1.5-5.5-1.5zm37 35q-4.2 0-7.3-1.6-3.1-1.6-4.8-4.4-1.7-2.9-1.7-6.7 0-4.7 1.9-8.3 2-3.7 5.5-5.9 3.5-2.1 8-2.1 3.5 0 5.8 1.2 2.3 1.2 3.7 3.2 1.4 2 1.8 4.6 0.5 2.5 0.2 5.2-0.1 1.2-0.6 1.5-0.5 0.4-1.5 0.4h-19.1l0.6-4.1h15.9l-1 0.8q0.4-2.2-0.1-4-0.5-1.8-2-2.9-1.3-1.1-3.8-1.1-2.5 0-4.2 1.1-1.7 1.2-2.7 3-0.9 1.8-1.3 3.8l-0.3 1.8q-0.7 4.2 1.4 6.6 2 2.5 6.3 2.5 1.7 0 3.5-0.4 1.8-0.4 3.3-1.2 1.1-0.7 1.9-0.6 0.8 0.1 1.3 0.7 0.5 0.5 0.6 1.3 0.1 0.7-0.3 1.6-0.3 0.8-1.2 1.4-2 1.3-4.7 1.9-2.8 0.7-5.1 0.7zm29.3 0q-4.1 0-7.1-1.6-2.9-1.5-4.5-4.4-1.5-2.8-1.5-6.6 0-3.8 1.2-6.8 1.2-3 3.3-5.2 2.2-2.2 5-3.3 2.7-1.1 6-1.1 4.1 0 7 1.5 3 1.5 4.5 4.4 1.6 2.8 1.6 6.7 0 3.7-1.2 6.7-1.2 3.1-3.4 5.2-2.1 2.2-4.9 3.3-2.8 1.2-6 1.2zm0.2-5.4q2.6 0 4.4-1.5 1.8-1.5 2.8-4.1 0.9-2.5 0.9-5.7 0-3.3-1.6-5.1-1.6-1.8-4.5-1.8-2.5 0-4.4 1.5-1.8 1.4-2.8 4-0.9 2.5-0.9 5.7 0 3.4 1.6 5.2 1.6 1.8 4.5 1.8zm21 15.5q-1.7 0-2.5-1.1-0.7-1.1-0.5-3l5-31.3q0.3-1.8 1.3-2.7 1-0.9 2.8-0.9 1.7 0 2.3 1.1 0.8 1 0.5 3l-0.5 3.2-0.1-1.7q1.6-2.8 4.1-4.3 2.5-1.4 5.8-1.4 3.2 0 5.5 1.4 2.4 1.5 3.7 4.2 1.3 2.7 1.3 6.4 0 4.7-1.7 8.6-1.6 3.8-4.8 6.1-3.1 2.3-7.5 2.3-3.2 0-5.7-1.6-2.4-1.5-3.4-4.5h0.5l-2.1 12.9q-0.2 1.7-1.2 2.5-1 0.8-2.8 0.8zm13.4-15.5q2.6 0 4.4-1.5 1.8-1.5 2.8-4.1 0.9-2.5 0.9-5.7 0-3.3-1.6-5.1-1.6-1.8-4.5-1.8-2.5 0-4.3 1.5-1.9 1.4-2.8 4-1 2.5-1 5.7 0 3.4 1.6 5.2 1.6 1.8 4.5 1.8zm29.4 5.4q-4.7 0-6.8-2.7-2.1-2.7-1.3-7.9l4.3-27.1q0.3-1.8 1.3-2.6 1-0.9 2.8-0.9 1.6 0 2.4 1 0.8 1.1 0.5 3.1l-4.2 26.4q-0.4 2.5 0.4 3.7 0.8 1.2 2.7 1.2 0.6 0 1-0.1 0.4-0.1 0.8-0.1 0.6 0 0.9 0.4 0.3 0.4 0.3 1.5 0 1.7-0.6 2.6-0.7 0.8-1.7 1.1-0.5 0.2-1.3 0.3-0.8 0.1-1.5 0.1zm21.7 0q-4.2 0-7.3-1.6-3.1-1.6-4.8-4.4-1.7-2.9-1.7-6.7 0-4.7 1.9-8.3 2-3.7 5.5-5.9 3.5-2.1 8-2.1 3.5 0 5.8 1.2 2.3 1.2 3.7 3.2 1.4 2 1.8 4.6 0.5 2.5 0.2 5.2-0.1 1.2-0.6 1.5-0.5 0.4-1.5 0.4h-19.1l0.6-4.1h15.9l-1 0.8q0.4-2.2-0.1-4-0.5-1.8-2-2.9-1.3-1.1-3.8-1.1-2.5 0-4.2 1.1-1.7 1.2-2.7 3-0.9 1.8-1.3 3.8l-0.3 1.8q-0.7 4.2 1.4 6.6 2 2.5 6.3 2.5 1.7 0 3.5-0.4 1.8-0.4 3.3-1.2 1.1-0.7 1.9-0.6 0.8 0.1 1.3 0.7 0.5 0.5 0.6 1.3 0.1 0.7-0.3 1.6-0.3 0.8-1.2 1.4-2 1.3-4.7 1.9-2.8 0.7-5.1 0.7zm22-12.5q-1.1 0-1.7-0.5-0.5-0.6-0.4-2l1.7-22.1q0.2-2.1 1.3-3.1 1.2-1 3.2-1 2.1 0 3.1 1.3 1 1.3 0.4 3.7l-5.1 21.6q-0.2 1-0.9 1.6-0.6 0.5-1.6 0.5zm-1.3 12.2q-2 0-3.2-1.2-1.1-1.2-1.1-3.1 0-1.8 1.1-3 1.2-1.2 3.2-1.2 2 0 3 1.2 1.2 1.2 1.2 3 0 1.9-1.2 3.1-1 1.2-3 1.2zm18.5-26.4q-0.8 0.8-1.7 0.8-0.8 0-1.4-0.5-0.5-0.5-0.5-1.3 0-0.8 0.9-1.6 1.5-1.4 2.1-2.6 0.7-1.2 0.9-2.6l0.4 1.9q-2 0-3.2-1.2-1.2-1.1-1.2-3.1 0-1.8 1.1-3 1.1-1.2 3.1-1.2 2 0 3 1.3 1.1 1.3 1.1 3.3 0 1.9-0.5 3.6-0.5 1.6-1.5 3.2-1 1.5-2.6 3zm11.1 0q-0.8 0.8-1.7 0.8-0.8 0-1.3-0.5-0.6-0.5-0.6-1.3 0-0.8 0.9-1.6 1.5-1.4 2.1-2.6 0.7-1.2 0.9-2.6l0.4 1.9q-2 0-3.2-1.2-1.2-1.1-1.2-3.1 0-1.8 1.1-3 1.2-1.2 3.1-1.2 2 0 3 1.3 1.1 1.3 1.1 3.3 0 1.9-0.5 3.6-0.5 1.6-1.5 3.2-1 1.5-2.6 3zm38.3 13.2h-12.5q-1.1 0-1.7-0.7-0.7-0.6-0.7-1.6 0-1 0.7-1.7 0.6-0.7 1.7-0.7h12.5q1 0 1.7 0.7 0.6 0.7 0.6 1.7 0 1-0.6 1.6-0.7 0.7-1.7 0.7zm50.2 12.9h-20.9q-3.1 0-3.1-3.2v-33.8q0-3.2 3.1-3.2h20.9q2.4 0 2.4 2.4 0 2.4-2.4 2.4h-18.3v12.6h17q2.4 0 2.4 2.4 0 2.4-2.4 2.4h-17v13.2h18.3q2.4 0 2.4 2.4 0 2.4-2.4 2.4zm18.1 0.5q-2.5 0-5.2-0.6-2.7-0.5-4.9-1.9-0.9-0.6-1.2-1.4-0.2-0.9 0.2-1.6 0.3-0.8 1-1 0.8-0.4 1.8 0.1 2.2 1.2 4.3 1.7 2 0.6 4 0.6 3.1 0 4.6-1.1 1.5-1.1 1.5-2.9 0-1.5-1-2.3-1-0.9-3.1-1.3l-5.4-1.1q-7.2-1.5-7.2-7.4 0-4 3.2-6.3 3.1-2.3 8.2-2.3 5.1 0 8.8 2.5 0.9 0.5 1.1 1.4 0.2 0.8-0.2 1.5-0.4 0.7-1.2 1-0.8 0.3-1.8-0.2-1.7-1-3.4-1.5-1.7-0.5-3.3-0.5-3 0-4.5 1.1-1.6 1.1-1.6 3 0 2.8 3.8 3.6l5.4 1.1q3.7 0.8 5.6 2.5 1.9 1.8 1.9 4.8 0 4-3.1 6.3-3.1 2.2-8.3 2.2zm29.1 0q-5.3 0-7.8-2.7-2.6-2.6-2.6-7.7v-13.5h-3.4q-2.4 0-2.4-2.2 0-2.2 2.4-2.2h3.4v-5.9q0-2.9 2.9-2.9 2.9 0 2.9 2.9v5.9h6.6q2.4 0 2.4 2.2 0 2.2-2.4 2.2h-6.6v13q0 3 1.2 4.6 1.3 1.5 4.2 1.5 1.1 0 1.8-0.1 0.7-0.3 1.3-0.3 0.6 0 1 0.4 0.4 0.4 0.4 1.6 0 0.9-0.3 1.7-0.3 0.7-1.1 0.9-0.7 0.3-1.9 0.4-1.1 0.2-2 0.2zm12.9-0.3q-1.7 0-2.7-1-1-1-1-2.6 0-1.6 1-2.6 1-1 2.7-1 1.7 0 2.6 1 1 1 1 2.6 0 1.6-1 2.6-0.9 1-2.6 1zm49.2-0.2h-19.2q-2.6 0-2.6-2.5 0-2.5 2.6-2.5h7v-28.4l-5.4 3.4q-1.1 0.7-2 0.4-1-0.3-1.5-1.2-0.4-0.8-0.3-1.8 0.3-1 1.4-1.7l7.8-5q1-0.5 1.8-0.9 1-0.4 1.8-0.4 0.9 0 1.6 0.6 0.6 0.6 0.6 1.8v33.2h6.4q2.6 0 2.6 2.5 0 2.5-2.6 2.5zm24.1 0.5q-6.9 0-10.8-3-3.8-2.9-3.8-8.2 0-3.7 1.9-6.3 2-2.6 5.2-3.6-2.8-1.2-4.5-3.6-1.6-2.5-1.6-5.8 0-5 3.7-7.8 3.7-2.9 9.9-2.9 6.2 0 10 2.9 3.7 2.8 3.7 7.8 0 3.3-1.8 5.8-1.6 2.5-4.5 3.6 3.3 1 5.2 3.6 2 2.6 2 6.3 0 5.3-3.9 8.2-3.8 3-10.7 3zm0-23.2q3.8 0 5.9-1.8 2.2-1.8 2.2-4.9 0-3.1-2.2-4.9-2.1-1.7-5.9-1.7-3.8 0-5.9 1.7-2.2 1.8-2.2 4.9 0 3.1 2.2 4.9 2.1 1.8 5.9 1.8zm0 18.5q9 0 9-6.9 0-6.9-9-6.9-4.5 0-6.8 1.7-2.3 1.7-2.3 5.2 0 6.9 9.1 6.9zm40.6 4.6q-1.4 0-2.2-0.7-0.8-0.8-0.8-2.2v-5.7h-15.2q-1.5 0-2.3-0.6-0.9-0.6-0.9-1.9 0-0.8 0.4-1.6 0.4-0.9 1.3-2.2l16.6-24.1q0.6-1 1.4-1.5 0.8-0.5 1.9-0.5 1.2 0 1.9 0.8 0.8 0.6 0.8 2.1v24.6h3.6q2.7 0 2.7 2.4 0 2.5-2.7 2.5h-3.6v5.7q0 2.9-2.9 2.9zm-15.2-13.5h12.2v-17.9zm42.6 13.6q-7 0-10.7-5.3-3.6-5.3-3.6-15.3 0-10.2 3.6-15.4 3.7-5.2 10.7-5.2 7.1 0 10.8 5.2 3.6 5.2 3.6 15.3 0 10.1-3.7 15.4-3.7 5.3-10.7 5.3zm0-4.9q4.4 0 6.5-3.8 2.1-3.9 2.1-12 0-8.1-2.1-11.8-2.1-3.8-6.5-3.8-4.3 0-6.4 3.8-2.1 3.7-2.1 11.8 0 8.1 2.1 12 2.1 3.8 6.4 3.8z"/><path  d="m299.3 123h-18.9q-2-2.3-2-5.8 3.2 0 4.8-1 1.6-1 1.6-3.6v-42.7q0-2.6-1.7-3.6-1.6-1.1-4.7-1.1 0-3.4 2.1-5.7h14.2q4 0 6.6 1.1 2.7 1.1 4.4 5l9.6 23.7 3.7 11.3 3.4-11.3 11.5-29.8h20.7q2.1 2.3 2.1 5.7-3.1 0-4.6 1.1-1.5 1-1.5 3.6v42.7q0 2.6 1.4 3.6 1.4 1 4.7 1 0 3.4-2.1 5.8h-22.5q-1-1.1-1.5-2.6-0.5-1.6-0.5-3.2 3 0 4.6-1 1.6-1 1.6-3.6v-37.6l-15.4 39q-1.2 3-3.5 4-2.2 0.9-5.3 0.9l-18-43.9v37.6q0 2.6 1.8 3.6 1.9 1 5.4 1 0 1.6-0.5 3.2-0.6 1.5-1.5 2.6zm82.6 0.8q-10.2 0-16.3-6.4-6-6.5-6-18.1 0-7.9 3-13.6 3-5.8 8.1-8.9 5.2-3.1 11.8-3.1 8.2 0 13.1 4.8 5 4.7 5 13.4 0 3.4-1.2 6.1-1.1 2.5-4.6 2.5h-19.7q0.3 7.2 3.3 10.2 3.1 3 8 3 3.1 0 5.7-0.9 2.7-1 4.9-2.7 0.9 0.7 1.3 2.3 0.6 1.4 0.6 2.4 0 1.5-2.1 3.7-2 2-5.9 3.7-3.7 1.6-9 1.6zm-6.8-30.2h9.2q1.5 0 1.9-1.2 0.5-1.2 0.5-2.9 0-5.8-1.5-7.6-1.4-1.9-3.3-1.9-1.5 0-3.1 1.1-1.5 1.2-2.5 4.2-1 2.9-1.2 8.3zm53 30.8q-6.6 0-11.7-3-5-3-7.9-8.6-2.9-5.6-2.9-13.5 0-8.1 3.1-13.8 3.1-5.8 8.5-8.8 5.4-3.1 12.1-3.1 7 0 10.6 3.4 3.7 3.2 3.7 8.1 0 4.3-2.2 6.7-2.2 2.4-5.6 2.4-2.9 0-4.8-2.1-1.9-2.1-1.9-5.1 0-2.2 0.7-3.6 0.9-1.3 2-2.3-0.9-0.5-1.5-0.6-0.5-0.2-1.1-0.2-1.7 0-3.5 1.4-1.9 1.4-3.1 4.8-1.2 3.5-1.2 9.7 0 10 2.9 14.1 2.9 4 8.2 4 2.4 0 4.9-0.8 2.5-0.7 4.3-2.1 0.7 1 1.2 2.3 0.5 1.3 0.5 2.3 0 1.9-2.1 3.9-2 1.9-5.4 3.2-3.5 1.3-7.8 1.3zm59.9-0.9q-4.4 0-6.8-1.3-2.3-1.4-2.3-4.4v-29.3q0-2.9-1.7-4.4-1.6-1.7-4.3-1.7-1.7 0-3.7 1.2-1.9 1.1-2.9 3v26.6q0 2.6 1.1 3.8 1.2 1.1 3.9 1.1 0 2.8-2.1 4.9h-20.1q-2.1-2.1-2.1-4.9 2.7 0 3.8-1.1 1.2-1.2 1.2-3.8v-49.3q0-2.1-1.2-3.3-1.2-1.2-4.9-1.2v-3.7q2.3-1.2 5.3-2.2 3.1-1 6.1-1.6 3.1-0.6 5.1-0.6 2.1 0 3 1 0.9 0.9 0.9 3.2v17.9l-0.2 7.3q2.4-3 6.1-5.1 3.7-2.1 8.5-2.1 12.9 0 12.9 13.5v25.4q0 4.7 4.4 5.5l0.1 2.6q-3.3 3-10.1 3zm28.3 0.1q-6.8 0-11.1-3.7-4.2-3.8-4.2-9.7 0-5.9 3.8-9.6 3.9-3.6 12-3.6 2.7 0 5.6 0.5 2.9 0.5 4.7 1.5v-12.1q0-3.8-2-5.3-1.9-1.6-4.7-1.6-3 0-4.9 1.5 1.8 0.6 2.6 2 0.8 1.3 0.8 2.8 0 3-2.2 4.9-2 1.7-5.1 1.7-3.5 0-5.6-2-2.1-2.1-2.1-5.2 0-3.1 2.1-5.8 2.1-2.9 6.5-4.7 4.4-1.8 11.4-1.8 18.3 0 18.3 14.5v24.1q0 4.4 4.2 5.3v2.9q-1.2 1.7-4 2.6-2.8 0.8-5.5 0.8-6.1 0-8.7-4.2-1.8 1.6-4.8 3-3 1.2-7.1 1.2zm5.9-7.3q1.3 0 2.6-0.4 1.4-0.5 2.3-1.1v-8.8q-0.9-0.7-2.3-1.1-1.4-0.5-2.8-0.5-2.3 0-4.1 1.6-1.7 1.4-1.7 4.6 0 2.5 1.6 4.1 1.7 1.6 4.4 1.6zm51.5 6.7h-20.7q-1-1-1.6-2.2-0.6-1.2-0.6-2.6 2.8 0 3.9-1.2 1.2-1.2 1.2-3.8v-26.6q0-2.4-1.3-3.5-1.3-1-4.8-1v-4.1q2.1-1.2 5.3-2.2 3.3-1 6.3-1.6 3.1-0.6 4.7-0.6 1.9 0 3.1 1.2 1.3 1.2 1.5 5.1 2.2-2.9 5.7-4.6 3.5-1.7 8.2-1.7 6.4 0 9.5 3.3 3.3 3.1 3.3 10.9v24.8q0 4.5 4.4 5.3l0.1 2.6q-0.9 1-2.9 1.7-2 0.6-4.4 1-2.3 0.3-4.3 0.3-3.9 0-5.8-1.4-1.8-1.5-1.8-4.7v-28.3q0-3.8-1.7-5.2-1.6-1.5-4-1.5-3.7 0-6.3 3v27.8q0 2.6 1.1 3.8 1.2 1.2 4 1.2 0 2.7-2.1 4.8zm44.8-55.8q-3.9 0-6.3-2.3-2.3-2.3-2.3-6.2 0-3.9 2.4-6.2 2.4-2.4 6.4-2.4 4 0 6.2 2.4 2.4 2.3 2.4 6.2 0 3.9-2.5 6.2-2.3 2.3-6.3 2.3zm10.3 55.8h-20.5q-1-1-1.6-2.2-0.5-1.2-0.5-2.7 2.6 0 3.9-1.1 1.3-1.2 1.3-3.9v-26.4q0-2.4-1.2-3.6-1.1-1.1-4.8-1.1v-4q1.3-0.9 4.2-1.9 2.8-1.1 6-1.8 3.4-0.7 6.1-0.7 2 0 3 1 0.9 0.9 0.9 3.2v35.4q0 2.7 1.3 3.8 1.4 1.1 4 1.1 0 1.5-0.5 2.7-0.6 1.2-1.6 2.2zm28.3 1.4q-6.6 0-11.7-3-5-3-7.9-8.6-2.9-5.6-2.9-13.5 0-8.1 3.1-13.8 3.1-5.8 8.5-8.8 5.4-3.1 12.1-3.1 7 0 10.6 3.4 3.7 3.2 3.7 8.1 0 4.3-2.2 6.7-2.2 2.4-5.6 2.4-2.9 0-4.8-2.1-1.9-2.1-1.9-5.1 0-2.2 0.7-3.6 0.9-1.3 2-2.3-0.9-0.5-1.5-0.6-0.5-0.2-1.1-0.2-1.7 0-3.5 1.4-1.9 1.4-3.1 4.8-1.2 3.5-1.2 9.7 0 10 2.9 14.1 2.9 4 8.2 4 2.4 0 4.9-0.8 2.5-0.7 4.3-2.1 0.7 1 1.2 2.3 0.5 1.3 0.5 2.3 0 1.9-2.1 3.9-2 1.9-5.4 3.2-3.5 1.3-7.8 1.3zm37.9-0.5q-3.3 0-6.6-0.7-3.3-0.7-6.1-2.1-2.7-1.4-4.5-3.4-1.7-2.1-1.7-4.7 0-3.2 1.8-5.1 1.8-2 4.7-2 2.5 0 4.2 1.6 1.9 1.7 1.9 4.3 0 1.2-0.4 2.1-0.4 0.8-1.1 1.8 0.8 0.8 2.9 1.2 2.1 0.4 4.1 0.4 3.2 0 4.9-1.2 1.7-1.2 1.7-2.9 0-2.8-2.9-4.7-2.9-2-6.6-4-3.4-1.8-6.7-3.8-3.3-2.1-5.6-5.2-2.2-3.1-2.2-7.8 0-6 5-9.9 5-3.9 14.2-3.9 6.4 0 10.2 1.6 3.8 1.5 5.6 4 1.7 2.4 1.7 5 0 2.8-1.8 4.6-1.8 1.6-4.3 1.6-2.3 0-4-1.4-1.7-1.4-1.7-3.7 0-1.1 0.3-2.4 0.4-1.2 1-2.1-1-0.8-2.3-1.1-1.3-0.3-3.1-0.3-3 0-4.7 1.4-1.5 1.4-1.5 3.4 0 3.1 2.9 5.1 3 2 6.6 3.9 3.4 1.7 6.6 3.7 3.3 2 5.4 5.1 2.2 3 2.2 7.7 0 5.1-2.9 8.2-2.9 3-7.5 4.3-4.6 1.4-9.7 1.4zm46.4 0.1q-2.7 0-6.1-0.4-3.5-0.3-6.7-1-3.3-0.7-5.5-1.8v-56.6q0-2.1-1.3-3.3-1.3-1.1-4.3-1.1v-3q2.1-1.4 5.1-2.5 2.9-1.2 5.8-1.9 3-0.7 4.9-0.7 2.2 0 3.1 1 0.9 0.9 0.9 3.1v13l-0.3 8.6q1.8-1.9 4.4-2.7 2.5-0.8 5.6-0.8 5 0 9.4 2.5 4.4 2.6 7.1 7.7 2.7 5.1 2.7 13.1 0 8.8-3.3 14.8-3.4 5.9-9 9-5.7 3-12.5 3zm0.3-6.6q2.4 0 4.4-1.6 2.1-1.6 3.3-5.4 1.2-3.7 1.2-10.1 0-10-2.8-14.3-2.9-4.4-7-4.4-2.1 0-3.5 1v33q1.7 1.8 4.4 1.8zm47 6.2q-6.4 0-10-3.9-3.5-3.9-3.5-10.5v-25.1q0-1.5-1.2-2.1-1.2-0.7-3.3-0.7v-4q1.2-1 4.9-2.1 3.9-1.2 8.6-1.2 3.5 0 4.6 0.9 1.2 0.8 1.2 4v30.5q0 2.8 0.9 4.2 0.9 1.5 3.2 1.5 1.9 0 3.7-1.2 1.8-1.2 3-2.7v-27.1q0-1.5-1.4-2.1-1.4-0.7-3.7-0.7v-4q1.2-1 5-2.1 3.7-1.2 8.8-1.2 3.5 0 4.8 0.9 1.3 0.8 1.3 4v33.5q0 2.1 1.1 3.6 1.2 1.4 3.3 1.6v2.6q-1.5 1.7-4.7 2.6-3.1 0.8-6 0.8-3 0-5.3-1.5-2.1-1.6-2.9-4.7-4.4 6.2-12.4 6.2zm62.1-0.6h-24.3q-1-1-1.5-2.2-0.5-1.2-0.5-2.7 2.6 0 3.7-1.1 1.2-1.2 1.2-3.9v-26.3q0-2.4-1.3-3.4-1.3-1.1-4.7-1.1v-4.1q2.1-1.2 5.2-2.2 3-1 5.9-1.5 2.9-0.6 4.5-0.6 2.1 0 3 1.4 1 1.5 1 6.3 1-1.9 2.9-3.7 2-1.9 4.5-3.1 2.4-1.2 5.1-1.2 4.3 0 6.1 2.2 1.8 2.2 1.8 5.6 0 3.9-2 6.4-2 2.4-5.5 2.4-3.1 0-5-1.7-1.8-1.8-1.8-4.1 0-1.4 0.3-2.3-1.5 0.4-2.8 1-1.4 0.6-2.8 1.9v27.3q0 2.1 0.7 3.3 0.6 1.3 2.4 1.9 1.9 0.6 5.7 0.6 0 1.5-0.4 2.7-0.4 1.2-1.4 2.2zm33.5-14.9q-3 0-5.7-0.7v0.3q0 2.3 1.7 3.2 1.8 0.9 6.3 1.3 11.5 0.8 17.4 4.2 5.9 3.3 5.9 10.1 0 3.5-2 6.6-2 3.1-5.6 5.4-3.4 2.2-7.9 3.5-4.5 1.3-9.3 1.3-11.3 0-16.5-4-5.1-4.1-5.1-10.2 0-3.4 2.2-6.1 2.3-2.7 6.5-4.2-2-1.4-2.6-3.3-0.4-1.8-0.4-4 0-1.4 1.2-3.2 1.2-1.7 3.6-2.6-4.3-2.3-6.7-6.3-2.4-4-2.4-8.6 0-4.7 2.3-8.4 2.3-3.8 6.7-6.1 4.5-2.3 11.1-2.3h0.1q0.8 0 2.5 0.1 1.7 0.1 3.2 0.4 6.2 0 9.5-0.1 3.4-0.2 5.1-0.4 1.7-0.1 3.4-0.4 1 0 1.4 1.4 0.5 1.2 0.5 2.4 0 1.7-0.8 2.9-0.9 1.2-2.8 1.2-0.8 0-3-0.9-2.2-0.9-4.2-1.6 3.1 2.4 4.7 5.6 1.6 3.2 1.6 6 0 8.6-5.8 13-5.8 4.5-16.1 4.5zm1.5-6q3 0 4.2-3.2 1.3-3.2 1.3-9.4 0-5.1-1.5-7.3-1.3-2.2-4-2.2-3 0-4.1 3.2-1.2 3.1-1.2 8.6 0 5 1.2 7.6 1.3 2.7 4.1 2.7zm-8.5 24.6q0 3.9 2.4 6.5 2.3 2.6 8.4 2.6 4.6 0 6.4-2.2 1.8-2.1 1.8-4.8 0-2.1-1.9-3.3-1.8-1.1-4.9-1.9-3.1-0.7-6.9-1.3-2.3-0.4-4.1-0.8-0.7 1.1-0.9 2.6-0.3 1.4-0.3 2.6zm81-2.4q-7.7 0-14.4-3.7-6.6-3.6-10.6-11-4-7.4-4-18.6 0-10.8 3.5-18 3.7-7.1 10-10.8 6.5-3.7 15-3.7 2 0 4.5 0.5 2.6 0.6 4.5 1.5 0.9-0.5 2.4-0.8 1.6-0.5 3.1-0.9 1.7-0.3 2.6-0.3 1.1 2.9 1.7 6.9 0.5 3.9 0.7 7.8 0.2 3.8 0.2 6.6h-10.3q-0.7-5.9-3.3-9.7-2.4-3.7-6.4-3.7-5.3 0-8.8 5-3.3 5-3.3 16.4 0 9.4 2.5 15 2.6 5.5 6.8 8 4.2 2.4 9 2.4 4.2 0 7.1-1.6 2.9-1.6 4.1-3.3 1.1 0.8 1.8 2.5 0.7 1.6 0.7 2.9 0 2.1-2.3 4.7-2.1 2.4-6.4 4.1-4.2 1.8-10.4 1.8zm64.7-0.8q-4.4 0-6.8-1.3-2.3-1.4-2.3-4.4v-29.3q0-2.9-1.7-4.4-1.6-1.7-4.3-1.7-1.7 0-3.7 1.2-1.9 1.1-2.9 3v26.6q0 2.6 1.1 3.8 1.2 1.1 3.9 1.1 0 2.8-2.1 4.9h-20.1q-2.1-2.1-2.1-4.9 2.7 0 3.8-1.1 1.2-1.2 1.2-3.8v-49.3q0-2.1-1.2-3.3-1.2-1.2-4.9-1.2v-3.7q2.3-1.2 5.3-2.2 3.1-1 6.1-1.6 3.1-0.6 5.1-0.6 2.1 0 3 1 0.9 0.9 0.9 3.2v17.9l-0.2 7.3q2.4-3 6.1-5.1 3.7-2.1 8.5-2.1 12.9 0 12.9 13.5v25.4q0 4.7 4.4 5.5l0.1 2.6q-3.3 3-10.1 3zm40.8-0.5h-24.3q-1-1-1.5-2.2-0.5-1.2-0.5-2.7 2.6 0 3.7-1.1 1.2-1.2 1.2-3.9v-26.3q0-2.4-1.3-3.4-1.3-1.1-4.7-1.1v-4.1q2.1-1.2 5.2-2.2 3-1 5.9-1.5 2.9-0.6 4.5-0.6 2.1 0 3 1.4 1 1.5 1 6.3 1-1.9 2.9-3.7 2-1.9 4.5-3.1 2.4-1.2 5.1-1.2 4.3 0 6.1 2.2 1.8 2.2 1.8 5.6 0 3.9-2 6.4-2 2.4-5.5 2.4-3.1 0-5-1.7-1.8-1.8-1.8-4.1 0-1.4 0.3-2.3-1.5 0.4-2.8 1-1.4 0.6-2.8 1.9v27.3q0 2.1 0.7 3.3 0.6 1.3 2.4 1.9 1.9 0.6 5.7 0.6 0 1.5-0.4 2.7-0.4 1.2-1.4 2.2zm27.7-55.8q-3.9 0-6.3-2.3-2.3-2.3-2.3-6.2 0-3.9 2.4-6.2 2.4-2.4 6.4-2.4 4 0 6.2 2.4 2.4 2.3 2.4 6.2 0 3.9-2.5 6.2-2.3 2.3-6.3 2.3zm10.3 55.8h-20.5q-1-1-1.6-2.2-0.5-1.2-0.5-2.7 2.6 0 3.9-1.1 1.3-1.2 1.3-3.9v-26.4q0-2.4-1.2-3.6-1.1-1.1-4.8-1.1v-4q1.3-0.9 4.2-1.9 2.8-1.1 6-1.8 3.4-0.7 6.1-0.7 2 0 3 1 0.9 0.9 0.9 3.2v35.4q0 2.7 1.3 3.8 1.4 1.1 4 1.1 0 1.5-0.5 2.7-0.6 1.2-1.6 2.2zm25.2 0.9q-3.3 0-6.6-0.7-3.3-0.7-6.1-2.1-2.7-1.4-4.5-3.4-1.7-2.1-1.7-4.7 0-3.2 1.8-5.1 1.8-2 4.7-2 2.5 0 4.2 1.6 1.9 1.7 1.9 4.3 0 1.2-0.4 2.1-0.4 0.8-1.1 1.8 0.8 0.8 2.9 1.2 2.1 0.4 4.1 0.4 3.2 0 4.9-1.2 1.7-1.2 1.7-2.9 0-2.8-2.9-4.7-2.9-2-6.6-4-3.4-1.8-6.7-3.8-3.3-2.1-5.6-5.2-2.2-3.1-2.2-7.8 0-6 5-9.9 5-3.9 14.2-3.9 6.4 0 10.2 1.6 3.8 1.5 5.6 4 1.7 2.4 1.7 5 0 2.8-1.8 4.6-1.8 1.6-4.3 1.6-2.3 0-4-1.4-1.7-1.4-1.7-3.7 0-1.1 0.3-2.4 0.4-1.2 1-2.1-1-0.8-2.3-1.1-1.3-0.3-3.1-0.3-3 0-4.7 1.4-1.5 1.4-1.5 3.4 0 3.1 2.9 5.1 3 2 6.6 3.9 3.4 1.7 6.6 3.7 3.3 2 5.4 5.1 2.2 3 2.2 7.7 0 5.1-2.9 8.2-2.9 3-7.5 4.3-4.6 1.4-9.7 1.4zm42.7-0.3q-3.8 0-7-1.3-3.1-1.5-5.1-4.9-2-3.5-2-9.5v-25h-5.7v-5.6q2.5-0.3 4.7-3.1 2.1-2.7 3.7-6.7 1.6-4 2.1-8 1.6-0.3 3-0.3 3.6 0 5 2.1 1.4 2.1 1.4 3.9v9.6h10.6q0 2.2-0.3 4.3-0.2 2.1-1.2 3.8h-8.9v25.6q0 2.9 1.2 3.9 1.2 1 3 1 1.8 0 3.6-1 2-1 3-2.2 1.1 0.8 1.4 2.4 0.4 1.6 0.4 2.4 0 2-1.4 4-1.4 2-4.3 3.4-2.8 1.2-7.2 1.2zm27.8-56.4q-3.9 0-6.3-2.3-2.3-2.3-2.3-6.2 0-3.9 2.4-6.2 2.4-2.4 6.4-2.4 4 0 6.2 2.4 2.4 2.3 2.4 6.2 0 3.9-2.5 6.2-2.3 2.3-6.3 2.3zm10.3 55.8h-20.5q-1-1-1.6-2.2-0.5-1.2-0.5-2.7 2.6 0 3.9-1.1 1.3-1.2 1.3-3.9v-26.4q0-2.4-1.2-3.6-1.1-1.1-4.8-1.1v-4q1.3-0.9 4.2-1.9 2.8-1.1 6-1.8 3.4-0.7 6.1-0.7 2 0 3 1 0.9 0.9 0.9 3.2v35.4q0 2.7 1.3 3.8 1.4 1.1 4 1.1 0 1.5-0.5 2.7-0.6 1.2-1.6 2.2zm20.5 0.6q-6.8 0-11.1-3.7-4.2-3.8-4.2-9.7 0-5.9 3.8-9.6 3.9-3.6 12-3.6 2.7 0 5.6 0.5 2.9 0.5 4.7 1.5v-12.1q0-3.8-2-5.3-1.9-1.6-4.7-1.6-3 0-4.9 1.5 1.8 0.6 2.6 2 0.8 1.3 0.8 2.8 0 3-2.2 4.9-2 1.7-5.1 1.7-3.5 0-5.6-2-2.1-2.1-2.1-5.2 0-3.1 2.1-5.8 2.1-2.9 6.5-4.7 4.4-1.8 11.4-1.8 18.3 0 18.3 14.5v24.1q0 4.4 4.2 5.3v2.9q-1.2 1.7-4 2.6-2.8 0.8-5.5 0.8-6.1 0-8.7-4.2-1.8 1.6-4.8 3-3 1.2-7.1 1.2zm5.9-7.3q1.3 0 2.6-0.4 1.4-0.5 2.3-1.1v-8.8q-0.9-0.7-2.3-1.1-1.4-0.5-2.8-0.5-2.3 0-4.1 1.6-1.7 1.4-1.7 4.6 0 2.5 1.6 4.1 1.7 1.6 4.4 1.6zm51.5 6.7h-20.7q-1-1-1.6-2.2-0.6-1.2-0.6-2.6 2.8 0 3.9-1.2 1.2-1.2 1.2-3.8v-26.6q0-2.4-1.3-3.5-1.3-1-4.8-1v-4.1q2.1-1.2 5.3-2.2 3.3-1 6.3-1.6 3.1-0.6 4.7-0.6 1.9 0 3.1 1.2 1.3 1.2 1.5 5.1 2.2-2.9 5.7-4.6 3.5-1.7 8.2-1.7 6.4 0 9.5 3.3 3.3 3.1 3.3 10.9v24.8q0 4.5 4.4 5.3l0.1 2.6q-0.9 1-2.9 1.7-2 0.6-4.4 1-2.3 0.3-4.3 0.3-3.9 0-5.8-1.4-1.8-1.5-1.8-4.7v-28.3q0-3.8-1.7-5.2-1.6-1.5-4-1.5-3.7 0-6.3 3v27.8q0 2.6 1.1 3.8 1.2 1.2 4 1.2 0 2.7-2.1 4.8zm78.6 1.3q-7.7 0-14.4-3.7-6.6-3.6-10.6-11-4-7.4-4-18.6 0-10.8 3.5-18 3.7-7.1 10-10.8 6.5-3.7 15-3.7 2 0 4.5 0.5 2.6 0.6 4.5 1.5 0.9-0.5 2.4-0.8 1.6-0.5 3.1-0.9 1.7-0.3 2.6-0.3 1.1 2.9 1.7 6.9 0.5 3.9 0.7 7.8 0.2 3.8 0.2 6.6h-10.3q-0.7-5.9-3.3-9.7-2.4-3.7-6.4-3.7-5.3 0-8.8 5-3.3 5-3.3 16.4 0 9.4 2.5 15 2.6 5.5 6.8 8 4.1 2.4 9 2.4 4.2 0 7.1-1.6 2.9-1.6 4.1-3.3 1.1 0.8 1.8 2.5 0.7 1.6 0.7 2.9 0 2.1-2.3 4.7-2.1 2.4-6.4 4.1-4.2 1.8-10.4 1.8zm64.7-0.8q-4.4 0-6.8-1.3-2.3-1.4-2.3-4.4v-29.3q0-2.9-1.7-4.4-1.6-1.7-4.3-1.7-1.7 0-3.7 1.2-1.9 1.1-2.9 3v26.6q0 2.6 1.1 3.8 1.2 1.1 3.9 1.1 0 2.8-2.1 4.9h-20.1q-2.1-2.1-2.1-4.9 2.7 0 3.8-1.1 1.2-1.2 1.2-3.8v-49.3q0-2.1-1.2-3.3-1.2-1.2-4.9-1.2v-3.7q2.3-1.2 5.3-2.2 3.1-1 6.1-1.6 3.1-0.6 5.1-0.6 2.1 0 3 1 0.9 0.9 0.9 3.2v17.9l-0.2 7.3q2.4-3 6.1-5.1 3.7-2.1 8.5-2.1 12.9 0 12.9 13.5v25.4q0 4.7 4.4 5.5l0.1 2.6q-3.3 3-10.1 3zm30.7 0.1q-6.4 0-10-3.9-3.5-3.9-3.5-10.5v-25.1q0-1.5-1.2-2.1-1.2-0.7-3.3-0.7v-4q1.2-1 4.9-2.1 3.9-1.2 8.6-1.2 3.5 0 4.6 0.9 1.2 0.8 1.2 4v30.5q0 2.8 0.9 4.2 0.9 1.5 3.2 1.5 1.9 0 3.7-1.2 1.8-1.2 3-2.7v-27.1q0-1.5-1.4-2.1-1.4-0.7-3.7-0.7v-4q1.2-1 5-2.1 3.7-1.2 8.8-1.2 3.5 0 4.8 0.9 1.3 0.8 1.3 4v33.5q0 2.1 1.1 3.6 1.2 1.4 3.3 1.6v2.6q-1.5 1.7-4.7 2.6-3.1 0.8-6 0.8-3 0-5.3-1.5-2.1-1.6-2.9-4.7-4.4 6.2-12.4 6.2zm61.1-0.6h-24.3q-1-1-1.5-2.2-0.5-1.2-0.5-2.7 2.6 0 3.7-1.1 1.2-1.2 1.2-3.9v-26.3q0-2.4-1.3-3.4-1.3-1.1-4.7-1.1v-4.1q2.1-1.2 5.2-2.2 3-1 5.9-1.5 2.9-0.6 4.5-0.6 2.1 0 3 1.4 1 1.5 1 6.3 1-1.9 2.9-3.7 2-1.9 4.5-3.1 2.4-1.2 5.1-1.2 4.3 0 6.1 2.2 1.8 2.2 1.8 5.6 0 3.9-2 6.4-2 2.4-5.5 2.4-3.1 0-5-1.7-1.8-1.8-1.8-4.1 0-1.4 0.3-2.3-1.5 0.4-2.8 1-1.4 0.6-2.8 1.9v27.3q0 2.1 0.7 3.3 0.6 1.3 2.4 1.9 1.9 0.6 5.7 0.6 0 1.5-0.4 2.7-0.4 1.2-1.4 2.2zm36.3 1.4q-6.6 0-11.7-3-5-3-7.9-8.6-2.9-5.6-2.9-13.5 0-8.1 3.1-13.8 3.1-5.8 8.5-8.8 5.4-3.1 12.1-3.1 7 0 10.6 3.4 3.7 3.2 3.7 8.1 0 4.3-2.2 6.7-2.2 2.4-5.6 2.4-2.9 0-4.8-2.1-1.9-2.1-1.9-5.1 0-2.2 0.7-3.6 0.9-1.3 2-2.3-0.9-0.5-1.5-0.6-0.5-0.2-1.1-0.2-1.7 0-3.5 1.4-1.9 1.4-3.1 4.8-1.2 3.5-1.2 9.7 0 10 2.9 14.1 2.9 4 8.2 4 2.4 0 4.9-0.8 2.5-0.7 4.3-2.1 0.7 1 1.2 2.3 0.5 1.3 0.5 2.3 0 1.9-2.1 3.9-2 1.9-5.4 3.2-3.5 1.3-7.8 1.3zm58.9-0.9q-4.4 0-6.8-1.3-2.3-1.4-2.3-4.4v-29.3q0-2.9-1.7-4.4-1.6-1.7-4.3-1.7-1.7 0-3.7 1.2-1.9 1.1-2.9 3v26.6q0 2.6 1.1 3.8 1.2 1.1 3.9 1.1 0 2.8-2.1 4.9h-20.1q-2.1-2.1-2.1-4.9 2.7 0 3.8-1.1 1.2-1.2 1.2-3.8v-49.3q0-2.1-1.2-3.3-1.2-1.2-4.9-1.2v-3.7q2.3-1.2 5.3-2.2 3.1-1 6.1-1.6 3.1-0.6 5.1-0.6 2.1 0 3 1 0.9 0.9 0.9 3.2v17.9l-0.2 7.3q2.4-3 6.1-5.1 3.7-2.1 8.5-2.1 12.9 0 12.9 13.5v25.4q0 4.7 4.4 5.5l0.1 2.6q-3.3 3-10.1 3z"/></svg>